<svg xmlns="http://www.w3.org/2000/svg" version="1.1" xmlns:xlink="http://www.w3.org/1999/xlink" xmlns:svgjs="http://svgjs.dev/svgjs" width="1500" height="750" viewBox="0 0 1500 1500"><rect width="1500" height="1500" fill="#000000"></rect><g transform="matrix(0.6666666666666666,0,0,0.6666666666666666,249.39393939393938,597.2139483198405)"><svg viewBox="0 0 396 121" data-background-color="#000000" preserveAspectRatio="xMidYMid meet" height="458" width="1500" xmlns="http://www.w3.org/2000/svg" xmlns:xlink="http://www.w3.org/1999/xlink"><g id="tight-bounds" transform="matrix(1,0,0,1,0.2400000000000091,0.047310873251007024)"><svg viewBox="0 0 395.52 120.90537825349801" height="120.90537825349801" width="395.52"><g><svg viewBox="0 0 395.52 120.90537825349801" height="120.90537825349801" width="395.52"><g transform="matrix(1,0,0,1,0,74.72437424387492)"><svg viewBox="0 0 395.52 46.1810040096231" height="46.1810040096231" width="395.52"><g id="textblocktransform"><svg viewBox="0 0 395.52 46.1810040096231" height="46.1810040096231" width="395.52" id="textblock"><g><svg viewBox="0 0 395.52 46.1810040096231" height="46.1810040096231" width="395.52"><g transform="matrix(1,0,0,1,0,0)"><svg width="395.52" viewBox="2.25 -35.7 311.73 36.400000000000006" height="46.1810040096231" data-palette-color="url(#a6c770c1-0e2b-4fec-ba8c-2467b3e2abff)"></svg></g></svg></g></svg></g></svg></g><g transform="matrix(1,0,0,1,159.14485778480568,0)"><svg viewBox="0 0 77.23028443038864 63.82214754129913" height="63.82214754129913" width="77.23028443038864"><g><svg xmlns="http://www.w3.org/2000/svg" xmlns:xlink="http://www.w3.org/1999/xlink" version="1.1" x="0" y="0" viewBox="7.975 14.403 74.05000000000001 61.193999999999996" enable-background="new 0 0 90 90" xml:space="preserve" height="63.82214754129913" width="77.23028443038864" class="icon-icon-0" data-fill-palette-color="accent" id="icon-0"></svg></g></svg></g><g></g></svg></g><defs></defs><mask id="89a5da06-9150-4640-abc3-f02f82e601d0"><g id="SvgjsG6821"><svg viewBox="0 0 395.52 120.90537825349801" height="120.90537825349801" width="395.52"><g><svg viewBox="0 0 395.52 120.90537825349801" height="120.90537825349801" width="395.52"><g transform="matrix(1,0,0,1,0,74.72437424387492)"><svg viewBox="0 0 395.52 46.1810040096231" height="46.1810040096231" width="395.52"><g id="SvgjsG6820"><svg viewBox="0 0 395.52 46.1810040096231" height="46.1810040096231" width="395.52" id="SvgjsSvg6819"><g><svg viewBox="0 0 395.52 46.1810040096231" height="46.1810040096231" width="395.52"><g transform="matrix(1,0,0,1,0,0)"><svg width="395.52" viewBox="2.25 -35.7 311.73 36.400000000000006" height="46.1810040096231" data-palette-color="url(#a6c770c1-0e2b-4fec-ba8c-2467b3e2abff)"><path d="M28.75-2.55L28.75 0 2.25 0 2.25-1 24.55-34Q23.75-34 20.9-33.8L20.9-33.8 3.55-32.55 3.55-35 28.55-35 28.55-34 6.25-1Q7.1-1 9.9-1.2L9.9-1.2 28.75-2.55ZM41.45 0L38.05 0 38.05-35 41.45-35 41.45 0ZM57.1 0L53.7 0 54.95-35.7 55.55-35.7 80.7-5.3 81-5.3 79.9-35 83.3-35 82.05 0.7 81.45 0.7 56.3-29.7 56-29.7 57.1 0ZM98.19 0L94.79 0 96.04-35.7 96.64-35.7 121.79-5.3 122.09-5.3 120.99-35 124.39-35 123.14 0.7 122.54 0.7 97.39-29.7 97.09-29.7 98.19 0ZM135.09 0L131.44 0 144.89-35 147.99-35 161.44 0 157.79 0 151.59-16.4 140.24-16.4 135.09 0ZM145.54-32.4L145.24-32.4 140.59-17.6 151.14-17.6 145.54-32.4ZM191.14 0L183.04 0 183.04-35 189.99-35Q195.39-35 198.39-32.75 201.39-30.5 201.39-26.5L201.39-26.5Q201.39-23.55 199.64-21.48 197.89-19.4 194.74-18.65L194.74-18.65 194.74-18.35Q199.04-17.8 201.46-15.38 203.89-12.95 203.89-9.25L203.89-9.25Q203.89-4.9 200.54-2.45 197.19 0 191.14 0L191.14 0ZM190.04-33.8L190.04-33.8 186.44-33.8 186.44-18.8 189.99-18.8Q197.89-18.8 197.89-26.3L197.89-26.3Q197.89-33.8 190.04-33.8ZM191.14-17.6L191.14-17.6 186.44-17.6 186.44-1.2 191.14-1.2Q200.29-1.2 200.29-9.4L200.29-9.4Q200.29-17.6 191.14-17.6ZM212.33 0L208.68 0 222.13-35 225.23-35 238.68 0 235.03 0 228.83-16.4 217.48-16.4 212.33 0ZM222.78-32.4L222.48-32.4 217.83-17.6 228.38-17.6 222.78-32.4ZM249.43 0L246.03 0 247.28-35.7 247.88-35.7 273.03-5.3 273.33-5.3 272.23-35 275.63-35 274.38 0.7 273.78 0.7 248.63-29.7 248.33-29.7 249.43 0ZM313.98 0L309.48 0 293.08-17.95 308.28-35 312.58-35 296.13-19.35 313.98 0ZM291.28 0L287.88 0 287.88-35 291.28-35 291.28 0Z" opacity="1" transform="matrix(1,0,0,1,0,0)" fill="white" class="wordmark-text-0" id="SvgjsPath6818"></path></svg></g></svg></g></svg></g></svg></g><g transform="matrix(1,0,0,1,159.14485778480568,0)"><svg viewBox="0 0 77.23028443038864 63.82214754129913" height="63.82214754129913" width="77.23028443038864"><g><svg xmlns="http://www.w3.org/2000/svg" xmlns:xlink="http://www.w3.org/1999/xlink" version="1.1" x="0" y="0" viewBox="7.975 14.403 74.05000000000001 61.193999999999996" enable-background="new 0 0 90 90" xml:space="preserve" height="63.82214754129913" width="77.23028443038864" class="icon-icon-0" data-fill-palette-color="accent" id="SvgjsSvg6817"><rect x="7.975" y="71.898" fill="black" width="74.049" height="3.699"></rect><rect x="14.035" y="65.732" fill="black" width="61.931" height="3.699"></rect><g fill="black"><rect x="19.536" y="35.517" fill="black" width="9.308" height="27.749"></rect><rect x="33.409" y="35.517" fill="black" width="9.308" height="27.749"></rect><rect x="47.283" y="35.517" fill="black" width="9.308" height="27.749"></rect><rect x="61.156" y="35.671" fill="black" width="9.308" height="27.749"></rect></g><polyline fill="black" points="7.975,33.05 45,14.403 82.025,33.05 "></polyline></svg></g></svg></g><g></g></svg></g><defs><mask></mask></defs></svg><rect width="395.52" height="120.90537825349801" fill="black" stroke="none" visibility="hidden"></rect></g></mask><linearGradient x1="0.054" x2="0.941" y1="0.5" y2="0.5" id="a6c770c1-0e2b-4fec-ba8c-2467b3e2abff"><stop stop-color="#864d25" offset="0"></stop><stop stop-color="#f1c4b3" offset="0.498"></stop><stop stop-color="#864d25" offset="1"></stop></linearGradient><rect width="395.52" height="120.90537825349801" fill="url(#a6c770c1-0e2b-4fec-ba8c-2467b3e2abff)" mask="url(#89a5da06-9150-4640-abc3-f02f82e601d0)" data-fill-palette-color="primary"></rect><mask id="b51b6054-aff3-474e-bf3e-5c6dbfb2efeb"><g id="SvgjsG6840"><svg viewBox="0 0 395.52 120.90537825349801" height="120.90537825349801" width="395.52"><g><svg viewBox="0 0 395.52 120.90537825349801" height="120.90537825349801" width="395.52"><g transform="matrix(1,0,0,1,0,74.72437424387492)"><svg viewBox="0 0 395.52 46.1810040096231" height="46.1810040096231" width="395.52"><g id="SvgjsG6839"><svg viewBox="0 0 395.52 46.1810040096231" height="46.1810040096231" width="395.52" id="SvgjsSvg6838"><g><svg viewBox="0 0 395.52 46.1810040096231" height="46.1810040096231" width="395.52"><g transform="matrix(1,0,0,1,0,0)"><svg width="395.52" viewBox="2.25 -35.7 311.73 36.400000000000006" height="46.1810040096231" data-palette-color="url(#a6c770c1-0e2b-4fec-ba8c-2467b3e2abff)"></svg></g></svg></g></svg></g></svg></g><g transform="matrix(1,0,0,1,159.14485778480568,0)"><svg viewBox="0 0 77.23028443038864 63.82214754129913" height="63.82214754129913" width="77.23028443038864"><g><svg xmlns="http://www.w3.org/2000/svg" xmlns:xlink="http://www.w3.org/1999/xlink" version="1.1" x="0" y="0" viewBox="7.975 14.403 74.05000000000001 61.193999999999996" enable-background="new 0 0 90 90" xml:space="preserve" height="63.82214754129913" width="77.23028443038864" class="icon-icon-0" data-fill-palette-color="accent" id="SvgjsSvg6837"><rect x="7.975" y="71.898" fill="white" width="74.049" height="3.699"></rect><rect x="14.035" y="65.732" fill="white" width="61.931" height="3.699"></rect><g fill="white"><rect x="19.536" y="35.517" fill="white" width="9.308" height="27.749"></rect><rect x="33.409" y="35.517" fill="white" width="9.308" height="27.749"></rect><rect x="47.283" y="35.517" fill="white" width="9.308" height="27.749"></rect><rect x="61.156" y="35.671" fill="white" width="9.308" height="27.749"></rect></g><polyline fill="white" points="7.975,33.05 45,14.403 82.025,33.05 "></polyline></svg></g></svg></g><g></g></svg></g><defs><mask></mask></defs><mask><g id="SvgjsG6836"><svg viewBox="0 0 395.52 120.90537825349801" height="120.90537825349801" width="395.52"><g><svg viewBox="0 0 395.52 120.90537825349801" height="120.90537825349801" width="395.52"><g transform="matrix(1,0,0,1,0,74.72437424387492)"><svg viewBox="0 0 395.52 46.1810040096231" height="46.1810040096231" width="395.52"><g id="SvgjsG6835"><svg viewBox="0 0 395.52 46.1810040096231" height="46.1810040096231" width="395.52" id="SvgjsSvg6834"><g><svg viewBox="0 0 395.52 46.1810040096231" height="46.1810040096231" width="395.52"><g transform="matrix(1,0,0,1,0,0)"><svg width="395.52" viewBox="2.25 -35.7 311.73 36.400000000000006" height="46.1810040096231" data-palette-color="url(#a6c770c1-0e2b-4fec-ba8c-2467b3e2abff)"><path d="M28.75-2.55L28.75 0 2.25 0 2.25-1 24.55-34Q23.75-34 20.9-33.8L20.9-33.8 3.55-32.55 3.55-35 28.55-35 28.55-34 6.25-1Q7.1-1 9.9-1.2L9.9-1.2 28.75-2.55ZM41.45 0L38.05 0 38.05-35 41.45-35 41.45 0ZM57.1 0L53.7 0 54.95-35.7 55.55-35.7 80.7-5.3 81-5.3 79.9-35 83.3-35 82.05 0.7 81.45 0.7 56.3-29.7 56-29.7 57.1 0ZM98.19 0L94.79 0 96.04-35.7 96.64-35.7 121.79-5.3 122.09-5.3 120.99-35 124.39-35 123.14 0.7 122.54 0.7 97.39-29.7 97.09-29.7 98.19 0ZM135.09 0L131.44 0 144.89-35 147.99-35 161.44 0 157.79 0 151.59-16.4 140.24-16.4 135.09 0ZM145.54-32.4L145.24-32.4 140.59-17.6 151.14-17.6 145.54-32.4ZM191.14 0L183.04 0 183.04-35 189.99-35Q195.39-35 198.39-32.75 201.39-30.5 201.39-26.5L201.39-26.5Q201.39-23.55 199.64-21.48 197.89-19.4 194.74-18.65L194.74-18.65 194.74-18.35Q199.04-17.8 201.46-15.38 203.89-12.95 203.89-9.25L203.89-9.25Q203.89-4.9 200.54-2.45 197.19 0 191.14 0L191.14 0ZM190.04-33.8L190.04-33.8 186.44-33.8 186.44-18.8 189.99-18.8Q197.89-18.8 197.89-26.3L197.89-26.3Q197.89-33.8 190.04-33.8ZM191.14-17.6L191.14-17.6 186.44-17.6 186.44-1.2 191.14-1.2Q200.29-1.2 200.29-9.4L200.29-9.4Q200.29-17.6 191.14-17.6ZM212.33 0L208.68 0 222.13-35 225.23-35 238.68 0 235.03 0 228.83-16.4 217.48-16.4 212.33 0ZM222.78-32.4L222.48-32.4 217.83-17.6 228.38-17.6 222.78-32.4ZM249.43 0L246.03 0 247.28-35.7 247.88-35.7 273.03-5.3 273.33-5.3 272.23-35 275.63-35 274.38 0.7 273.78 0.7 248.63-29.7 248.33-29.7 249.43 0ZM313.98 0L309.48 0 293.08-17.95 308.28-35 312.58-35 296.13-19.35 313.98 0ZM291.28 0L287.88 0 287.88-35 291.28-35 291.28 0Z" opacity="1" transform="matrix(1,0,0,1,0,0)" fill="black" class="wordmark-text-0" id="SvgjsPath6833"></path></svg></g></svg></g></svg></g></svg></g><g transform="matrix(1,0,0,1,159.14485778480568,0)"><svg viewBox="0 0 77.23028443038864 63.82214754129913" height="63.82214754129913" width="77.23028443038864"><g><svg xmlns="http://www.w3.org/2000/svg" xmlns:xlink="http://www.w3.org/1999/xlink" version="1.1" x="0" y="0" viewBox="7.975 14.403 74.05000000000001 61.193999999999996" enable-background="new 0 0 90 90" xml:space="preserve" height="63.82214754129913" width="77.23028443038864" class="icon-icon-0" data-fill-palette-color="accent" id="SvgjsSvg6832"><rect x="7.975" y="71.898" fill="black" width="74.049" height="3.699"></rect><rect x="14.035" y="65.732" fill="black" width="61.931" height="3.699"></rect><g fill="black"><rect x="19.536" y="35.517" fill="black" width="9.308" height="27.749"></rect><rect x="33.409" y="35.517" fill="black" width="9.308" height="27.749"></rect><rect x="47.283" y="35.517" fill="black" width="9.308" height="27.749"></rect><rect x="61.156" y="35.671" fill="black" width="9.308" height="27.749"></rect></g><polyline fill="black" points="7.975,33.05 45,14.403 82.025,33.05 "></polyline></svg></g></svg></g><g></g></svg></g><defs><mask></mask></defs></svg><rect width="395.52" height="120.90537825349801" fill="black" stroke="none" visibility="hidden"></rect></g></mask></svg><rect width="395.52" height="120.90537825349801" fill="black" stroke="none" visibility="hidden"></rect></g></mask><linearGradient x1="0.054" x2="0.941" y1="0.5" y2="0.5" id="4a7b528c-39d8-4753-98d8-f6bd72704a13"><stop stop-color="#864d25" offset="0"></stop><stop stop-color="#f1c4b3" offset="0.498"></stop><stop stop-color="#864d25" offset="1"></stop></linearGradient><rect width="395.52" height="120.90537825349801" fill="url(#4a7b528c-39d8-4753-98d8-f6bd72704a13)" mask="url(#b51b6054-aff3-474e-bf3e-5c6dbfb2efeb)" data-fill-palette-color="accent"></rect></svg><rect width="395.52" height="120.90537825349801" fill="none" stroke="none" visibility="hidden"></rect></g></svg></g></svg>